<?xml version="1.0" standalone="no"?>
<!DOCTYPE svg PUBLIC "-//W3C//DTD SVG 20010904//EN"
 "http://www.w3.org/TR/2001/REC-SVG-20010904/DTD/svg10.dtd">
<svg version="1.0" xmlns="http://www.w3.org/2000/svg"
 width="400.000000pt" height="400.000000pt" viewBox="0 0 400.000000 400.000000"
 preserveAspectRatio="xMidYMid meet">
<metadata>
Created by potrace 1.14, written by Peter Selinger 2001-2017
</metadata>
<g transform="translate(0.000000,400.000000) scale(0.100000,-0.100000)"
fill="#000000" stroke="none">
<path d="M1805 3994 c-232 -33 -376 -68 -532 -129 -373 -146 -695 -399 -916
-720 -79 -115 -87 -128 -152 -260 -149 -303 -212 -595 -202 -945 9 -309 69
-553 202 -825 87 -177 145 -264 281 -425 238 -282 591 -509 957 -614 188 -55
313 -70 557 -70 192 -1 242 3 345 22 333 63 602 181 860 376 136 102 280 242
362 351 75 99 97 131 145 211 472 781 350 1800 -293 2443 -155 154 -300 260
-526 384 -118 64 -376 148 -568 183 -86 15 -449 28 -520 18z"/>
</g>
</svg>
